<svg xmlns="http://www.w3.org/2000/svg" xmlns:xlink="http://www.w3.org/1999/xlink" viewBox="0 0 1366 768"><defs><style>.cls-1{fill:url(#linear-gradient);}</style><linearGradient id="linear-gradient" x1="1000.84" y1="216.83" x2="37.5" y2="723.5" gradientUnits="userSpaceOnUse"><stop offset="0" stop-color="#94ffeb"/><stop offset="1" stop-color="#94cbff"/></linearGradient></defs><title>bg</title><g id="Layer_2" data-name="Layer 2"><g id="Layer_1-2" data-name="Layer 1"><path class="cls-1" d="M174.5,703a254.32,254.32,0,0,1,125.9,33.14,255.78,255.78,0,0,1,253,.69,255.77,255.77,0,0,1,255.5.73,255.77,255.77,0,0,1,255.5-.73A255.6,255.6,0,0,1,1361.81,768H1366V384s-34-191-340-190S683,0,683,0H0V768H4.26A254.53,254.53,0,0,1,174.5,703Z"/></g></g></svg>